<svg width="300" height="300" viewBox="0 0 300 300" fill="none" xmlns="http://www.w3.org/2000/svg">
<rect width="300" height="300" rx="150" fill="white"/>
<path d="M83.7451 107.895H95.7581V119.908H83.7451V107.895ZM83.7451 119.908H95.7581V131.922H83.7451V119.908ZM95.7581 95.8823H107.771V107.895H95.7581V95.8823ZM107.771 95.8823H119.784V107.895H107.771V95.8823ZM119.784 95.8823H131.797V107.895H119.784V95.8823ZM143.81 95.8823H155.823V107.895H143.81V95.8823ZM155.823 95.8823H167.837V107.895H155.823V95.8823ZM167.837 95.8823H179.85V107.895H167.837V95.8823ZM179.85 95.8823H191.863V107.895H179.85V95.8823ZM179.85 107.895H191.863V119.908H179.85V107.895ZM191.863 107.895H203.876V119.908H191.863V107.895ZM191.863 119.908H203.876V131.922H191.863V119.908ZM95.7581 131.922H107.771V143.935H95.7581V131.922ZM95.7581 143.935H107.771V155.948H95.7581V143.935ZM83.7451 143.935H95.7581V155.948H83.7451V143.935ZM131.797 107.895H143.81V119.908H131.797V107.895ZM131.797 119.908H143.81V131.922H131.797V119.908ZM119.784 107.895H131.797V119.908H119.784V107.895ZM143.81 131.922H155.823V143.935H143.81V131.922ZM143.81 143.935H155.823V155.948H143.81V143.935ZM143.81 155.948H155.823V167.961H143.81V155.948ZM143.81 167.961H155.823V179.974H143.81V167.961ZM131.797 179.974H143.81V191.987H131.797V179.974ZM119.784 191.987H131.797V204H119.784V191.987ZM107.771 191.987H119.784V204H107.771V191.987ZM107.771 179.974H119.784V191.987H107.771V179.974ZM95.7581 179.974H107.771V191.987H95.7581V179.974ZM83.7451 191.987H95.7581V204H83.7451V191.987ZM191.863 131.922H203.876V143.935H191.863V131.922ZM179.85 143.935H191.863V155.948H179.85V143.935ZM179.85 155.948H191.863V167.961H179.85V155.948ZM179.85 167.961H191.863V179.974H179.85V167.961ZM179.85 179.974H191.863V191.987H179.85V179.974ZM191.863 191.987H203.876V204H191.863V191.987ZM203.876 191.987H215.889V204H203.876V191.987Z" fill="black"/>
</svg>
