<svg width="192" height="157" viewBox="0 0 192 157" fill="none" xmlns="http://www.w3.org/2000/svg">
<path d="M87.033 -0.000734224H156.659V17.4058H174.066V69.6255H156.659V34.8124H139.253V17.4058H87.033V-0.000734224ZM87.033 52.2189H69.6265V34.8124H52.2199V17.4058H17.4068V-0.000734224H69.6265V17.4058H87.033V52.2189ZM17.4068 52.2189H0.000298782V17.4058H17.4068V52.2189ZM0.000298782 69.6255H17.4068V52.2189H34.8134V87.032H0.000298782V69.6255ZM87.033 52.2189H104.44V121.845H87.033V52.2189ZM156.659 139.252H139.253V69.6255H156.659V139.252ZM69.6265 121.845H87.033V139.252H69.6265V121.845ZM17.4068 121.845H52.2199V139.252H69.6265V156.658H34.8134V139.252H17.4068V121.845ZM0.000298782 139.252H17.4068V156.658H0.000298782V139.252ZM156.659 139.252H191.472V156.658H156.659V139.252Z" fill="white" fill-opacity="0.53"/>
</svg>
