<svg xmlns="http://www.w3.org/2000/svg" viewBox="0 0 512 512" role="img" aria-label="Cal Note icon">
  <rect width="512" height="512" rx="120" fill="#f7f5ef"/>
  <rect x="96" y="72" width="320" height="368" rx="40" fill="#ffffff" stroke="#e8e0d2" stroke-width="16"/>
  <rect x="140" y="136" width="144" height="24" rx="12" fill="#3d8b66"/>
  <rect x="140" y="194" width="232" height="18" rx="9" fill="#e8e0d2"/>
  <rect x="140" y="236" width="232" height="18" rx="9" fill="#e8e0d2"/>
  <rect x="140" y="278" width="150" height="18" rx="9" fill="#e8e0d2"/>
  <path d="M332 340c28 0 52 22 52 50s-24 50-52 50-52-22-52-50 24-50 52-50Z" fill="#e3f2ea"/>
  <path d="M331 366c12 0 22 9 22 20 0 15-14 21-22 29-8-8-22-14-22-29 0-11 10-20 22-20Z" fill="#3d8b66"/>
</svg>
